{"title":"Meteor.Storm.2010.HDTVRip.AC3.X264-BARC0DE","uid":5657469,"size":1562025665,"categoryP":"video","categoryS":"movies","magnet":"?xt=urn:btih:aec98d0d2aac7cd6ee9d3d3189a1cdc33b26d29e&amp;dn=Meteor.Storm.2010.HDTVRip.AC3.X264-BARC0DE&amp;tr=udp%3A%2F%2Ftracker.openbittorrent.com%3A80&amp;tr=udp%3A%2F%2Fopen.demonii.com%3A1337&amp;tr=udp%3A%2F%2Ftracker.coppersurfer.tk%3A6969&amp;tr=udp%3A%2F%2Fexodus.desync.com%3A6969","seeders":0,"leechers":1,"uploader":"TvTeam","files":4,"time":1277855825,"description":". \n \n &lt;a href=&quot;\nhttp://www.torrentday.com&quot; rel=&quot;nofollow&quot; target=&quot;_NEW&quot;&gt;\nhttp://www.torrentday.com&lt;/a&gt; :  Your Key To The Scene.\n\n\nNow TvTeam with [No-RAR] Releases.\n\n\n\n(((((((((((((= Enjoy No RAR releases =))))))))))))))))))))\n\n\n\n...................................NFO:....................................\n\n.*******************************************************************************\n                  Meteor.Storm.2010.HDTVRip.AC3.X264-BARC0DE\n*******************************************************************************\n\n-------------------------------------------------------------------------------\n                              General Information\n-------------------------------------------------------------------------------\nType.................: Movie\nName.................: Meteor Storm\nMovie Information....: http://www.imdb.com/title/tt1589487/\nGenre................: Sci-Fi\n\n-------------------------------------------------------------------------------\n                                    PLOT\n-------------------------------------------------------------------------------\nSan Francisco becomes a target for waves of destructive meteors after a rogue comet \norbits around the earth... For astronomer, Michelle Young, what was meant to be a \nonce-in-a-lifetime celestial event, soon turns into her worst nightmare as thousands \nof meteors break the surface of the atmosphere and bombard the city of San Francisco.\n\n-------------------------------------------------------------------------------\n                                    CAST\n-------------------------------------------------------------------------------\nMichael Trucco\t... \tColonel Tom Young\nKari Matchett\t... \tDr. Michelle Young\nKirsten Prout\t... \tKara\nBrett Dier\t... \tJason Young\nEric Johnson\t... \tKyle Pember\nKevin McNulty\t... \tGen. Brock\nLara Gilchrist\t... \tLena\nTravis Nelson\t... \tBrad\nEmily Holmes\t... \tLaura\nViv Leacock\t... \tColonel Jack Clancey\nCarmen Moore\t... \tHarper\nVal Cole\t... \tFemale Newscaster\nJill Morrison\t... \tPregnant Woman\n\n-------------------------------------------------------------------------------\n                                    MEDiA iNFO\n-------------------------------------------------------------------------------\n\nGeneral\nComplete name                    : Meteor.Storm.2010.HDTVRip.AC3.X264-BARC0DE.mkv\nFormat                           : Matroska\nFile size                        : 1.45 GiB\nDuration                         : 1h 27mn\nOverall bit rate                 : 2 382 Kbps\n\n\nVideo\nID                               : 1\nFormat                           : AVC\nFormat/Info                      : Advanced Video Codec\nFormat profile                   : &lt;a class=&quot;__cf_email__&quot; href=&quot;/cdn-cgi/l/email-protection&quot; data-cfemail=&quot;377a565e59777b041907&quot;&gt;[email&amp;#160;protected]&lt;/a&gt;&lt;script cf-hash='f9e31' type=&quot;text/javascript&quot;&gt;\n/* &lt;![CDATA[ */!function(){try{var t=&quot;currentScript&quot;in document?document.currentScript:function(){for(var t=document.getElementsByTagName(&quot;script&quot;),e=t.length;e--;)if(t[e].getAttribute(&quot;cf-hash&quot;))return t[e]}();if(t&amp;&amp;t.previousSibling){var e,r,n,i,c=t.previousSibling,a=c.getAttribute(&quot;data-cfemail&quot;);if(a){for(e=&quot;&quot;,r=parseInt(a.substr(0,2),16),n=2;a.length-n;n+=2)i=parseInt(a.substr(n,2),16)^r,e+=String.fromCharCode(i);e=document.createTextNode(e),c.parentNode.replaceChild(e,c)}}}catch(u){}}();/* ]]&gt; */&lt;/script&gt;\nFormat settings, CABAC           : No\nFormat settings, ReFrames        : 2 frames\nMuxing mode                      : Container profile=&lt;a class=&quot;__cf_email__&quot; href=&quot;/cdn-cgi/l/email-protection&quot; data-cfemail=&quot;c792a9aca9a8b0a987f4e9f7&quot;&gt;[email&amp;#160;protected]&lt;/a&gt;&lt;script cf-hash='f9e31' type=&quot;text/javascript&quot;&gt;\n/* &lt;![CDATA[ */!function(){try{var t=&quot;currentScript&quot;in document?document.currentScript:function(){for(var t=document.getElementsByTagName(&quot;script&quot;),e=t.length;e--;)if(t[e].getAttribute(&quot;cf-hash&quot;))return t[e]}();if(t&amp;&amp;t.previousSibling){var e,r,n,i,c=t.previousSibling,a=c.getAttribute(&quot;data-cfemail&quot;);if(a){for(e=&quot;&quot;,r=parseInt(a.substr(0,2),16),n=2;a.length-n;n+=2)i=parseInt(a.substr(n,2),16)^r,e+=String.fromCharCode(i);e=document.createTextNode(e),c.parentNode.replaceChild(e,c)}}}catch(u){}}();/* ]]&gt; */&lt;/script&gt;\nCodec ID                         : V_MPEG4/ISO/AVC\nDuration                         : 1h 27mn\nBit rate                         : 1 950 Kbps\nNominal bit rate                 : 2 004 Kbps\nWidth                            : 720 pixels\nHeight                           : 400 pixels\nDisplay aspect ratio             : 16:9\nFrame rate                       : 29.970 fps\nResolution                       : 8 bits\nColorimetry                      : 4:2:0\nScan type                        : Progressive\nBits/(Pixel*Frame)               : 0.226\nStream size                      : 1.19 GiB (82%)\nWriting library                  : x264 core 79\n\nAudio\nID                               : 2\nFormat                           : AC-3\nFormat/Info                      : Audio Coding 3\nFormat_Settings_ModeExtension    : CM (complete main)\nCodec ID                         : A_AC3\nDuration                         : 1h 27mn\nBit rate mode                    : Constant\nBit rate                         : 384 Kbps\nChannel(s)                       : 6 channels\nChannel positions                : Front: L C R, Side: L R, LFE\nSampling rate                    : 48.0 KHz\nStream size                      : 240 MiB (16%)\nLanguage                         : English","torrent":{"xt":"urn:btih:aec98d0d2aac7cd6ee9d3d3189a1cdc33b26d29e","amp;dn":"Meteor.Storm.2010.HDTVRip.AC3.X264-BARC0DE","amp;tr":["udp%3A%2F%2Ftracker.openbittorrent.com%3A80","udp%3A%2F%2Fopen.demonii.com%3A1337","udp%3A%2F%2Ftracker.coppersurfer.tk%3A6969","udp%3A%2F%2Fexodus.desync.com%3A6969"],"infoHash":"aec98d0d2aac7cd6ee9d3d3189a1cdc33b26d29e","infoHashBuffer":{"type":"Buffer","data":[174,201,141,13,42,172,124,214,238,157,61,49,137,161,205,195,59,38,210,158]},"announce":[],"urlList":[]}}